<svg width="45" height="35" viewBox="0 0 45 35" fill="none" xmlns="http://www.w3.org/2000/svg">
<g clip-path="url(#clip0_298_3058)">
<path d="M16.3438 2.96094H28.4569V24.7263H16.3438V2.96094Z" fill="#FF5F00"/>
<path d="M17.1124 13.8437C17.1124 9.42149 19.1889 5.49902 22.3806 2.96094C20.035 1.11515 17.0741 0 13.8439 0C6.19113 0 0 6.19113 0 13.8437C0 21.4963 6.19113 27.6875 13.8437 27.6875C17.0739 27.6875 20.0349 26.5723 22.3806 24.7263C19.1889 22.2268 17.1124 18.266 17.1124 13.8437Z" fill="#EB001B"/>
<path d="M44.8005 13.8437C44.8005 21.4961 38.6094 27.6875 30.9568 27.6875C27.7266 27.6875 24.7657 26.5723 22.4199 24.7263C25.6501 22.1884 27.6882 18.266 27.6882 13.8437C27.6882 9.42149 25.6116 5.49902 22.4199 2.96094C24.7655 1.11515 27.7266 0 30.9568 0C38.6094 0 44.8005 6.22967 44.8005 13.8437Z" fill="#F79E1B"/>
</g>
<defs>
<clipPath id="clip0_298_3058">
<rect width="44.8442" height="34.8594" fill="white"/>
</clipPath>
</defs>
</svg>
