<svg width="27" height="27" viewBox="0 0 27 27" fill="none" xmlns="http://www.w3.org/2000/svg">
<path d="M2.8982 26.0838C2.1012 26.0838 1.41891 25.8001 0.851347 25.2325C0.283782 24.6649 0 23.9826 0 23.1856V2.8982C0 2.1012 0.283782 1.41891 0.851347 0.851347C1.41891 0.283782 2.1012 0 2.8982 0H23.1856C23.9826 0 24.6649 0.283782 25.2325 0.851347C25.8001 1.41891 26.0838 2.1012 26.0838 2.8982V23.1856C26.0838 23.9826 25.8001 24.6649 25.2325 25.2325C24.6649 25.8001 23.9826 26.0838 23.1856 26.0838H2.8982ZM2.8982 23.1856H23.1856V18.8383H18.8383C18.1138 19.7561 17.2504 20.4686 16.2481 20.9757C15.2458 21.4829 14.177 21.7365 13.0419 21.7365C11.9068 21.7365 10.8381 21.4829 9.83578 20.9757C8.83348 20.4686 7.97006 19.7561 7.24551 18.8383H2.8982V23.1856ZM13.0419 18.8383C13.9597 18.8383 14.7929 18.5727 15.5416 18.0413C16.2903 17.51 16.8096 16.8096 17.0994 15.9401H23.1856V2.8982H2.8982V15.9401H8.98443C9.27425 16.8096 9.79351 17.51 10.5422 18.0413C11.2909 18.5727 12.1242 18.8383 13.0419 18.8383ZM13.0419 15.9401L7.24551 10.1437L9.27425 8.04252L11.5928 10.3611V4.34731H14.491V10.3611L16.8096 8.04252L18.8383 10.1437L13.0419 15.9401Z" fill="white"/>
</svg>
