<svg width="116" height="85" viewBox="0 0 116 85" fill="none" xmlns="http://www.w3.org/2000/svg">
<path d="M29.1113 55.4463L28.4472 53.2249H22.9281L22.264 55.4463H17.0884L22.8365 39.6905H28.722L34.4701 55.4463H29.1113ZM23.9815 49.6982H27.3938L25.7449 44.0875H25.6533L23.9815 49.6982ZM47.05 39.6905H53.3248L47.6683 46.1715L53.4393 55.4463H47.4622L44.1874 49.6753L41.4393 51.9196V55.4463H36.3782V39.6905H41.4393V46.4234L47.05 39.6905ZM55.6838 55.4463V39.6905H60.7449V55.4463H55.6838ZM74.8443 39.6905C75.6382 39.6905 76.3634 39.8585 77.0198 40.1943C77.6916 40.515 78.2183 40.973 78.6 41.5684C78.9969 42.1638 79.1954 42.8279 79.1954 43.5608C79.1954 45.4997 78.3176 46.7211 76.5618 47.2249V47.3165C78.5618 47.7745 79.5618 49.0875 79.5618 51.2554C79.5618 52.0799 79.3557 52.8127 78.9435 53.4539C78.5466 54.0799 77.9969 54.5684 77.2947 54.9196C76.5924 55.2707 75.8214 55.4463 74.9817 55.4463H64.3557V39.6905H74.8443ZM69.4168 45.8279H72.8977C73.2336 45.8279 73.5084 45.7134 73.7221 45.4844C73.9511 45.2402 74.0656 44.9424 74.0656 44.5913V44.3623C74.0656 44.0264 73.9511 43.744 73.7221 43.515C73.4931 43.2707 73.2183 43.1485 72.8977 43.1485H69.4168V45.8279ZM69.4168 51.7822H73.2641C73.6 51.7822 73.8748 51.6677 74.0885 51.4386C74.3175 51.1944 74.4321 50.8967 74.4321 50.5455V50.3165C74.4321 49.9654 74.3175 49.6753 74.0885 49.4463C73.8748 49.202 73.6 49.0799 73.2641 49.0799H69.4168V51.7822ZM92.357 55.4463L91.6928 53.2249H86.1737L85.5096 55.4463H80.334L86.0821 39.6905H91.9676L97.7158 55.4463H92.357ZM87.2272 49.6982H90.6394L88.9905 44.0875H88.8989L87.2272 49.6982Z" fill="#BB7A44"/>
<path d="M31.5061 81.4463V67.8193H29.669V65.7503H35.6531V67.8193H33.8873V81.4463H31.5061ZM36.9997 81.4463V65.7503H40.9505C41.7709 65.7503 42.3833 65.9108 42.7876 66.2318C43.1919 66.5529 43.4565 67.0226 43.5813 67.6409C43.7121 68.2593 43.7775 69.0143 43.7775 69.9061C43.7775 70.8277 43.6824 71.553 43.4922 72.0822C43.3079 72.6054 42.9273 72.9562 42.3506 73.1345C42.6241 73.1821 42.853 73.2951 43.0373 73.4734C43.2216 73.6458 43.3703 73.9015 43.4832 74.2404C43.5962 74.5733 43.6765 75.0044 43.724 75.5335C43.7775 76.0567 43.8043 76.6988 43.8043 77.4599C43.8043 77.5193 43.8043 77.6858 43.8043 77.9593C43.8043 78.2328 43.8043 78.5568 43.8043 78.9314C43.8102 79.3 43.8162 79.6686 43.8221 80.0372C43.8281 80.4058 43.837 80.7209 43.8489 80.9825C43.8608 81.2441 43.8756 81.3987 43.8935 81.4463H41.5034C41.4856 81.4166 41.4707 81.265 41.4588 80.9915C41.4529 80.712 41.4439 80.3583 41.4321 79.9302C41.4261 79.5021 41.4202 79.0413 41.4142 78.5479C41.4142 78.0544 41.4142 77.5698 41.4142 77.0942C41.4142 76.6126 41.4142 76.1875 41.4142 75.8189C41.4142 75.3492 41.3785 74.9955 41.3072 74.7576C41.2418 74.5139 41.1169 74.3444 40.9326 74.2493C40.7543 74.1542 40.4956 74.0977 40.1568 74.0799L39.3898 74.0353V81.4463H36.9997ZM39.3987 72.1803H40.353C40.6443 72.1803 40.8643 72.1149 41.0129 71.9841C41.1675 71.8533 41.2715 71.6125 41.325 71.2617C41.3845 70.9109 41.4142 70.4056 41.4142 69.7456V69.6475C41.4142 69.0946 41.3875 68.6695 41.334 68.3722C41.2804 68.0749 41.1675 67.8698 40.9951 67.7569C40.8286 67.6439 40.567 67.5874 40.2103 67.5874H39.3987V72.1803ZM44.9191 81.4463L47.1575 65.7503H50.3146L52.6957 81.4463H50.4662L50.0916 78.646H47.5589L47.22 81.4463H44.9191ZM47.7907 76.7286H49.8419L48.7896 68.8449H48.7539L47.7907 76.7286ZM55.5406 81.4463L53.106 65.7503H55.3801L56.4057 72.8402L57.0389 77.8344H57.1013L57.6453 72.8402L58.5015 65.7503H60.731L58.4926 81.4463H55.5406ZM61.1324 81.4463L63.3708 65.7503H66.5279L68.909 81.4463H66.6795L66.3049 78.646H63.7721L63.4332 81.4463H61.1324ZM64.004 76.7286H66.0552L65.0029 68.8449H64.9672L64.004 76.7286ZM73.6892 81.6247C72.8746 81.6247 72.2117 81.473 71.7004 81.1698C71.1891 80.8607 70.8145 80.3969 70.5767 79.7786C70.3389 79.1543 70.22 78.3665 70.22 77.4153V65.7503H72.6101V77.3707C72.6101 77.8106 72.6279 78.1971 72.6636 78.53C72.7052 78.863 72.8003 79.1216 72.949 79.3059C73.0976 79.4902 73.3414 79.5824 73.6803 79.5824C74.0191 79.5824 74.2629 79.4932 74.4115 79.3148C74.5661 79.1305 74.6613 78.8719 74.6969 78.539C74.7326 78.206 74.7504 77.8166 74.7504 77.3707V65.7503H77.1405V77.4153C77.1405 78.3665 77.0216 79.1543 76.7838 79.7786C76.5519 80.3969 76.1803 80.8607 75.669 81.1698C75.1636 81.473 74.5037 81.6247 73.6892 81.6247ZM78.5674 81.4463L80.9843 73.0275L78.5763 65.7503H80.5919L82.1525 70.4145L83.41 65.7503H85.6485L83.2762 73.7856L85.8357 81.4463H83.7667L82.1704 76.6215L80.8772 81.4463H78.5674Z" fill="#BB7A44"/>
<path d="M56.9008 0L0 37.2314H6.32231L56.9008 4.21488L108.884 37.2314H115.207L56.9008 0Z" fill="#BB7A44"/>
</svg>
